<svg width="22" height="22" xmlns="http://www.w3.org/2000/svg" xmlns:svg="http://www.w3.org/2000/svg">
 <defs>
  <clipPath>
   <path d="m-7,1024.36l34,0l0,34l-34,0l0,-34z" fill="#00f" fill-opacity="0.51"/>
  </clipPath>
  <clipPath>
   <path d="m-6,1028.36l32,0l0,32l-32,0l0,-32z" fill="#aade87" fill-opacity="0.47"/>
  </clipPath>
 </defs>
 <g>
  <path d="m11.77,15.25l6.9,-6.85c0.44,-0.44 0.44,-1.15 0.01,-1.58c-0.44,-0.44 -1.15,-0.44 -1.58,-0.01l-6.11,6.06l-6.06,-6.11c-0.44,-0.44 -1.15,-0.44 -1.58,-0.01c-0.44,0.44 -0.44,1.15 -0.01,1.58l6.85,6.91c0.22,0.22 0.5,0.33 0.79,0.33c0.29,0 0.57,-0.11 0.79,-0.32" fill="#ffffff"/>
 </g>
</svg>