<?xml version="1.0" encoding="iso-8859-1"?>
<!-- Generator: Adobe Illustrator 19.0.0, SVG Export Plug-In . SVG Version: 6.00 Build 0)  -->
<svg version="1.1" id="Capa_1" xmlns="http://www.w3.org/2000/svg" xmlns:xlink="http://www.w3.org/1999/xlink" x="0px" y="0px"
	 viewBox="0 0 470.175 470.175" style="enable-background:new 0 0 470.175 470.175;" xml:space="preserve">
<path d="M429.219,44.707c-0.752-1.666-2.085-2.999-3.751-3.751C365.393,13.84,301.347,0.092,235.11,0.089
	C168.828,0.092,104.782,13.84,44.707,40.956c-1.666,0.752-2.999,2.085-3.751,3.751c-54.607,120.989-54.607,259.772,0,380.762
	c0.752,1.666,2.085,2.999,3.751,3.751c60.075,27.115,124.121,40.864,190.359,40.867c66.282-0.003,130.328-13.752,190.403-40.867
	c1.666-0.752,2.999-2.085,3.751-3.751C483.827,304.479,483.827,165.696,429.219,44.707z M448.049,314.649
	c-30.935,8.29-63.534,14.636-97.032,19.036c3.264-29.816,5.033-60.309,5.268-91.098h98.817
	C454.698,266.715,452.348,290.816,448.049,314.649z M242.587,455.018v-98.717c30.76-0.252,61.345-2.057,91.238-5.34
	c-4.448,33.581-10.856,66.139-19.157,97.093C291.024,452.293,266.965,454.622,242.587,455.018z M22.125,155.526
	c30.944-8.292,63.553-14.64,97.062-19.04c-3.278,29.942-5.038,60.47-5.285,91.102H15.073
	C15.476,203.46,17.827,179.359,22.125,155.526z M227.587,15.157v98.717c-30.748,0.252-61.32,2.056-91.202,5.336
	c4.437-33.512,10.827-66.111,19.134-97.092C179.159,17.881,203.214,15.552,227.587,15.157z M314.663,22.12
	c8.267,30.83,14.673,63.323,19.133,97.091c-29.884-3.281-60.459-5.085-91.209-5.337V15.157
	C266.964,15.553,291.02,17.881,314.663,22.12z M227.587,129.059v98.528h-98.697c0.255-31.287,2.13-62.453,5.602-92.977
	C165.089,131.158,196.312,129.315,227.587,129.059z M15.073,242.587h98.819c0.25,30.505,2.026,61.029,5.325,91.106
	c-33.519-4.4-66.138-10.75-97.092-19.044C17.827,290.816,15.476,266.715,15.073,242.587z M128.881,242.587h98.706v98.528
	c-31.271-0.255-62.489-2.099-93.081-5.55C131.012,304.893,129.142,273.727,128.881,242.587z M242.587,341.116v-98.528h98.698
	c-0.244,31.455-2.11,62.587-5.564,92.972C305.112,339.015,273.876,340.86,242.587,341.116z M356.28,227.587
	c-0.09-10.514-0.35-21.054-0.799-31.606c-0.176-4.138-3.652-7.365-7.812-7.175c-4.139,0.176-7.351,3.674-7.175,7.812
	c0.44,10.341,0.696,20.668,0.785,30.97h-98.692v-98.528c31.274,0.255,62.496,2.099,93.091,5.551
	c1.209,10.659,2.239,21.428,3.066,32.309c0.3,3.937,3.587,6.932,7.471,6.932c0.19,0,0.383-0.007,0.576-0.021
	c4.13-0.314,7.224-3.917,6.91-8.047c-0.749-9.853-1.656-19.62-2.713-29.297c33.508,4.4,66.117,10.748,97.061,19.04
	c4.299,23.833,6.649,47.934,7.053,72.062H356.28z M444.774,139.134c-30.416-7.805-62.531-13.872-95.625-18.103
	c-4.23-33.17-10.29-65.177-18.122-95.657c29.303,6.403,57.926,15.774,85.68,28.093C429.023,81.224,438.373,109.933,444.774,139.134z
	 M53.468,53.467c27.752-12.318,56.374-21.689,85.675-28.092c-7.864,30.623-13.901,62.729-18.108,95.655
	c-33.098,4.231-65.216,10.299-95.634,18.104C31.802,109.933,41.152,81.224,53.468,53.467z M25.401,331.041
	c30.42,7.806,62.54,13.874,95.64,18.105c1.558,12.177,3.362,24.267,5.431,36.235c0.631,3.649,3.8,6.224,7.382,6.224
	c0.424,0,0.854-0.036,1.286-0.11c4.082-0.706,6.818-4.587,6.113-8.668c-1.821-10.531-3.427-21.161-4.845-31.859
	c29.874,3.279,60.439,5.082,91.179,5.334v98.717c-24.381-0.396-48.442-2.725-72.089-6.965c-3.108-11.606-6.008-23.708-8.637-36.051
	c-0.863-4.051-4.85-6.63-8.898-5.773c-4.051,0.863-6.636,4.847-5.773,8.898c2.149,10.09,4.48,20.023,6.954,29.673
	c-29.301-6.403-57.923-15.774-85.675-28.092C41.152,388.95,31.802,360.242,25.401,331.041z M416.707,416.708
	c-27.753,12.318-56.375,21.69-85.677,28.093c7.865-30.602,13.937-62.665,18.156-95.661c33.082-4.231,65.184-10.297,95.588-18.099
	C438.373,360.242,429.023,388.95,416.707,416.708z"/>
<g>
</g>
<g>
</g>
<g>
</g>
<g>
</g>
<g>
</g>
<g>
</g>
<g>
</g>
<g>
</g>
<g>
</g>
<g>
</g>
<g>
</g>
<g>
</g>
<g>
</g>
<g>
</g>
<g>
</g>
</svg>
