<svg width="512" height="512" xmlns="http://www.w3.org/2000/svg" xmlns:svg="http://www.w3.org/2000/svg" xmlns:xlink="http://www.w3.org/1999/xlink" enable-background="new 0 0 512 512" version="1.1" xml:space="preserve">
 <g class="layer">
  <title>Layer 1</title>
  <g id="svg_1">
   <g id="svg_2">
    <g id="svg_3">
     <path d="m426.67,0l-341.34,0c-9.38,0 -17.06,7.68 -17.06,17.07l0,477.86c0,9.39 7.68,17.07 17.06,17.07l341.34,0c9.38,0 17.06,-7.68 17.06,-17.07l0,-477.86c0,-9.39 -7.68,-17.07 -17.06,-17.07zm0,494.93l-341.34,0l0,-477.86l341.34,0l0,477.86z" id="svg_4"/>
     <path d="m128,221.87l119.47,0c5.12,0 8.53,-3.42 8.53,-8.54c0,-5.12 -3.41,-8.53 -8.53,-8.53l-119.47,0c-5.12,0 -8.53,3.41 -8.53,8.53c0,5.12 3.41,8.54 8.53,8.54z" id="svg_6"/>
     <path d="m128,256l85.33,0c5.12,0 8.54,-3.41 8.54,-8.53s-3.42,-8.54 -8.54,-8.54l-85.33,0c-5.12,0 -8.53,3.42 -8.53,8.54s3.41,8.53 8.53,8.53z" id="svg_7"/>
     <path d="m128,358.4l85.33,0c5.12,0 8.54,-3.41 8.54,-8.53s-3.42,-8.54 -8.54,-8.54l-85.33,0c-5.12,0 -8.53,3.42 -8.53,8.54s3.41,8.53 8.53,8.53z" id="svg_8"/>
     <path d="m292.69,215.89c-3.41,3.42 -3.41,8.54 0,11.95l25.6,25.6c1.71,1.71 3.42,2.56 5.98,2.56c3.41,0 5.12,-1.71 6.82,-2.56l42.67,-59.73c3.41,-4.27 1.71,-9.39 -1.71,-11.95c-4.26,-3.41 -9.38,-1.71 -11.94,1.71l-36.7,51.2l-18.77,-18.78c-3.41,-3.41 -8.53,-3.41 -11.95,0z" id="svg_9"/>
     <path d="m128,324.27l119.47,0c5.12,0 8.53,-3.42 8.53,-8.54s-3.41,-8.53 -8.53,-8.53l-119.47,0c-5.12,0 -8.53,3.41 -8.53,8.53s3.41,8.54 8.53,8.54z" id="svg_10"/>
     <path d="m372.05,284.16c-4.26,-3.41 -9.38,-1.71 -11.94,1.71l-36.7,51.2l-18.77,-18.78c-3.41,-3.41 -8.53,-3.41 -11.95,0s-3.41,8.54 0,11.95l25.6,25.6c1.71,1.71 3.42,2.56 5.98,2.56c3.41,0 5.12,-1.71 6.82,-2.56l42.67,-59.73c3.41,-4.27 1.71,-9.39 -1.71,-11.95z" id="svg_11"/>
     <path d="m128,426.67l119.47,0c5.12,0 8.53,-3.42 8.53,-8.54s-3.41,-8.53 -8.53,-8.53l-119.47,0c-5.12,0 -8.53,3.41 -8.53,8.53s3.41,8.54 8.53,8.54z" id="svg_12"/>
     <path d="m128,460.8l85.33,0c5.12,0 8.54,-3.41 8.54,-8.53c0,-5.12 -3.42,-8.54 -8.54,-8.54l-85.33,0c-5.12,0 -8.53,3.42 -8.53,8.54c0,5.12 3.41,8.53 8.53,8.53z" id="svg_13"/>
     <path d="m364.37,403.63c-3.41,-3.42 -8.53,-3.42 -11.94,0l-15.36,15.36l-15.36,-15.36c-3.42,-3.42 -8.54,-3.42 -11.95,0c-3.41,3.41 -3.41,8.53 0,11.94l15.36,15.36l-15.36,15.36c-3.41,3.42 -3.41,8.54 0,11.95c1.71,1.71 3.41,2.56 5.97,2.56s4.27,-0.85 5.97,-2.56l15.36,-15.36l15.37,15.36c1.7,1.71 3.41,2.56 5.97,2.56s4.27,-0.85 5.97,-2.56c3.41,-3.41 3.41,-8.53 0,-11.95l-15.36,-15.36l15.36,-15.36c3.42,-3.41 3.42,-8.53 0,-11.94z" id="svg_14"/>
     <use id="svg_31" transform="matrix(7.11111 0 0 7.11111 0 0)" x="23.2" xlink:href="#svg_30" y="2.11"/>
    </g>
   </g>
  </g>
  <g id="svg_15"/>
  <g id="svg_16"/>
  <g id="svg_17"/>
  <g id="svg_18"/>
  <g id="svg_19"/>
  <g id="svg_20"/>
  <g id="svg_21"/>
  <g id="svg_22"/>
  <g id="svg_23"/>
  <g id="svg_24"/>
  <g id="svg_25"/>
  <g id="svg_26"/>
  <g id="svg_27"/>
  <g id="svg_28"/>
  <g id="svg_29"/>
 </g>
 <defs>
  <symbol height="24px" id="svg_30" viewBox="0 0 24 24" width="24px" xmlns="http://www.w3.org/2000/svg">
   <path d="m7.46,11.61l4.54,2.27l4.54,-2.27l-4.54,-6.81l-4.54,6.81zm7.62,2.97l-3.08,1.54l-3.08,-1.54l3.08,4.62l3.08,-4.62zm-3.08,-13.38l7.2,10.8l-7.2,10.8l-7.2,-10.8l7.2,-10.8z" fill-rule="evenodd"/>
  </symbol>
 </defs>
</svg>